<svg class="icon" width="200" height="200" viewBox="0 0 1024 1024" xmlns="http://www.w3.org/2000/svg"><path d="M511.82 962.596c-20.228 0-36.843-16.615-36.843-36.842V625.958c-49.123-15.892-82.715-61.404-82.715-113.416 0-52.013 33.592-97.524 82.715-113.417V97.885c0-20.227 16.615-36.842 36.842-36.842s36.843 16.615 36.843 36.842v301.24c49.123 15.893 82.714 61.404 82.714 113.417 0 52.012-33.591 97.524-82.714 113.416v299.796c0 20.227-16.615 36.842-36.843 36.842zm0-495.927c-6.863 0-14.087 2.168-22.034 6.502-15.17 8.308-24.2 23.117-24.2 39.732 0 16.254 9.03 31.063 24.2 39.732 7.947 4.334 14.81 6.502 22.033 6.502 6.863 0 14.087-2.168 22.034-6.502 15.17-8.308 24.2-23.117 24.2-39.732 0-16.254-9.03-31.063-24.2-39.732-7.947-4.334-14.81-6.502-22.034-6.502zm341.333 495.927c-20.227 0-36.843-16.615-36.843-36.842v-485.09c-49.123-15.894-82.714-61.405-82.714-113.417 0-52.013 33.591-97.524 82.714-113.417V98.246c0-20.227 16.616-36.842 36.843-36.842 20.227 0 36.842 16.615 36.842 36.842V213.83c49.123 15.893 82.715 61.404 82.715 113.417 0 52.012-33.592 97.523-82.715 113.416v485.09c-.361 20.228-16.615 36.843-36.842 36.843zm0-681.583c-6.863 0-14.087 2.167-22.033 6.502-15.17 8.307-24.2 23.116-24.2 39.732 0 16.254 9.03 31.063 24.2 39.731 7.946 4.335 14.809 6.502 22.033 6.502s14.087-2.167 22.033-6.502c15.17-8.307 24.2-23.116 24.2-39.731 0-16.254-9.03-31.064-24.2-39.732-8.308-4.335-15.17-6.502-22.033-6.502zM170.847 962.596c-20.227 0-36.842-16.615-36.842-36.842v-114.14C84.882 795.723 51.29 750.212 51.29 698.199c0-52.012 33.592-97.524 82.715-113.416V97.885c0-20.227 16.615-36.842 36.842-36.842s36.843 16.615 36.843 36.842v486.897c49.123 15.892 82.714 61.404 82.714 113.416 0 52.013-33.591 97.524-82.714 113.417v114.139c0 20.227-16.616 36.842-36.843 36.842zm0-310.27c-6.863 0-14.087 2.167-22.033 6.502-15.17 8.307-24.2 23.116-24.2 39.731 0 16.254 9.03 31.064 24.2 39.732 7.946 4.335 14.81 6.502 22.033 6.502 6.863 0 14.087-2.167 22.033-6.502 15.17-8.307 24.2-23.116 24.2-39.732 0-16.254-9.03-31.063-24.2-39.731-7.946-4.335-15.17-6.502-22.033-6.502z"/></svg>