<svg class="icon" width="200" height="200" viewBox="0 0 1024 1024" xmlns="http://www.w3.org/2000/svg"><path d="M937.945 972.603c-45.293-59.274-45.293-121.305-.394-195.15 2.363-3.742 3.544-7.878 3.938-11.816.394-1.379.394-2.954.394-4.332V33.28c0-14.966-12.21-27.175-27.175-27.175H248.517c-92.357 0-167.582 75.027-167.582 167.581v676.825c0 1.772.197 3.741.591 5.514-.984 6.695-1.575 13.193-1.575 20.283 0 77.194 62.818 140.012 140.012 140.012h696.32c10.437 0 19.89-5.71 24.222-15.163 4.529-9.059 3.938-20.283-2.56-28.554zM762.486 62.425v149.858l-67.348-40.566c-8.467-5.12-19.298-5.12-27.963 0l-71.68 42.732V62.228l166.991.197zm-513.97-1.97h292.826v202.043c0 9.847 5.316 18.905 13.784 23.631 4.332 2.363 8.862 3.545 13.39 3.545 4.924 0 9.65-1.379 13.982-3.939l98.659-59.273 94.523 57.107c8.468 5.12 18.905 5.12 27.57.394 8.467-4.726 13.98-13.981 13.98-23.63V60.454h70.893v675.643H220.16c-31.705 0-61.243 10.634-84.677 28.751V173.883c-.197-62.621 50.61-113.428 113.034-113.428zm619.52 901.711H220.16c-47.262 0-85.858-38.4-85.858-85.858 0-47.262 38.4-85.859 85.858-85.859h649.846c-12.997 30.326-19.89 59.865-20.086 88.222-.394 28.75 5.71 56.714 18.117 83.495z"/></svg>