<svg class="icon" width="200" height="200" viewBox="0 0 1024 1024" xmlns="http://www.w3.org/2000/svg"><path d="M502.835 215.603a17.92 17.92 0 100 35.943h323.38a17.92 17.92 0 100-35.943h-323.38zm341.35 269.466a17.92 17.92 0 00-17.97-17.971h-323.38a17.92 17.92 0 100 35.942h323.38a17.92 17.92 0 0017.97-17.971zm-456.703-354.97a17.92 17.92 0 00-25.293 1.946l-112.23 130.918-68.66-51.507a17.92 17.92 0 00-21.555 28.723l82.125 61.594a17.92 17.92 0 0024.422-2.714l123.187-143.718a17.818 17.818 0 00-1.996-25.242zm0 251.495a17.92 17.92 0 00-25.293 1.945l-112.23 130.919-68.66-51.508a17.971 17.971 0 00-21.555 28.775l82.125 61.593a17.92 17.92 0 0024.422-2.713l123.187-143.719a17.92 17.92 0 00-1.996-25.292zm-25.293 271.41l-112.23 130.92-68.66-51.508a17.971 17.971 0 00-21.555 28.723l82.125 61.594a17.92 17.92 0 0024.422-2.714l123.187-143.718a17.92 17.92 0 10-27.29-23.296z"/><path fill="#fff" d="M484.915 934.195H236.544A182.989 182.989 0 0153.709 751.36V218.726A182.989 182.989 0 01236.544 35.891h532.634a182.989 182.989 0 01182.835 182.835v374.119a17.92 17.92 0 1035.942 0V218.726A219.034 219.034 0 00769.178 0H236.544A218.931 218.931 0 0017.818 218.726V751.36a218.931 218.931 0 00218.726 218.726h248.371a17.92 17.92 0 100-35.89z"/><path fill="#fff" d="M870.4 637.133c0 10.035-7.629 18.227-17.05 18.227H580.3c-9.471 0-17.1-8.14-17.1-18.227v-4.557c0-10.035 7.629-18.176 17.05-18.176H853.3c9.471 0 17.1 8.14 17.1 18.227v4.506zm0 368.64c0 10.086-7.629 18.227-17.05 18.227H580.3c-9.471 0-17.1-8.14-17.1-18.227v-4.557c0-10.035 7.629-18.227 17.05-18.227H853.3c9.42 0 17.049 8.14 17.049 18.227v4.557h.051z"/><path fill="#fff" d="M716.8 820.02l-3.226-1.486a416.973 416.973 0 01-67.379-40.09c-44.39-32.665-67.891-66.508-67.891-97.945 0-18.739 15.36-34.355 44.442-45.26 24.934-9.319 58.316-14.439 94.105-14.439s69.171 5.12 94.106 14.438c29.081 10.855 44.441 26.522 44.441 45.261 0 31.437-23.45 65.28-67.89 97.946-33.28 24.473-66.049 39.475-67.38 40.09l-3.328 1.484zm0-191.54c-33.792 0-65.229 4.762-88.474 13.466-17.612 6.604-38.553 18.636-38.553 38.553 0 37.274 35.277 71.015 64.921 92.826a419.84 419.84 0 0062.157 37.376c9.063-4.403 35.84-18.023 62.31-37.479 29.543-21.76 64.717-55.45 64.717-92.672 0-19.968-20.992-32-38.553-38.553-23.296-8.755-54.733-13.517-88.525-13.517z"/><path fill="#fff" d="M716.8 1013.76c-35.738 0-69.171-5.12-94.106-14.438-29.081-10.855-44.441-26.522-44.441-45.261 0-31.437 23.45-65.28 67.891-97.946 33.28-24.473 66.048-39.475 67.38-40.09l3.276-1.433 3.226 1.485c1.382.614 34.15 15.616 67.379 40.09 44.39 32.665 67.891 66.508 67.891 97.945 0 18.74-15.36 34.355-44.442 45.26-24.883 9.268-58.316 14.388-94.054 14.388zm0-189.85c-9.062 4.404-35.84 18.023-62.31 37.479-29.543 21.76-64.717 55.45-64.717 92.672 0 19.968 20.992 32 38.553 38.553 23.245 8.704 54.682 13.466 88.474 13.466s65.229-4.762 88.474-13.466c17.612-6.604 38.553-18.636 38.553-38.553 0-37.223-35.225-70.912-64.717-92.672a425.114 425.114 0 00-62.31-37.479zm90.573-110.182c0 50.483-90.573 91.443-90.573 91.443s-90.573-40.96-90.573-91.443 181.146-50.534 181.146 0z"/></svg>