<svg class="icon" width="200" height="200" viewBox="0 0 1024 1024" xmlns="http://www.w3.org/2000/svg"><path d="M487.67 311.634c0-17.598-14.239-31.837-31.837-31.837H151.451c-17.598 0-31.837 14.24-31.837 31.837 0 17.599 14.24 31.838 31.837 31.838h304.382c17.597 0 31.838-14.24 31.838-31.838z"/><path fill="#fff" d="M305.725 501.04c0-17.597-14.239-31.837-31.837-31.837H151.451c-17.598 0-31.837 14.24-31.837 31.838s14.24 31.837 31.837 31.837h122.437c17.598 0 31.837-14.24 31.837-31.837zM151.451 658.61c-17.598 0-31.837 14.24-31.837 31.838s14.24 31.837 31.837 31.837h86.93c17.599 0 31.838-14.24 31.838-31.837s-14.24-31.837-31.837-31.837h-86.93z"/><path fill="#fff" d="M413.487 955.717H135.844c-32.023 0-58.079-30.159-58.079-67.281v-740.9c0-37.123 26.055-67.343 58.079-67.343h584.325c31.961 0 58.015 30.22 58.015 67.343v85.998c0 17.598 14.24 31.837 31.838 31.837s31.837-14.24 31.837-31.837v-85.998c0-72.256-54.596-131.017-121.69-131.017H135.844C68.687 16.518 14.09 75.28 14.09 147.536v740.9c0 72.193 54.596 130.955 121.753 130.955h277.643c17.598 0 31.837-14.24 31.837-31.837s-14.24-31.837-31.837-31.837z"/><path fill="#fff" d="M965.103 677.744c-3.05-1.392-4.112-3.847-4.444-5.57-.33-1.726-.265-4.311 2.19-6.898 2.52-2.72 5.504-4.776 9.683-6.567 30.444-13.597 46.76-39.996 43.643-70.705-3.184-31.572-12.603-57.838-28.853-80.19-21.424-29.516-54.124-39.133-87.353-25.27-4.709 1.923-9.087 2.852-13.796 2.852-2.454 0-6.234-2.455-6.434-4.71-.265-3.25.199-6.367 1.658-10.479 3.25-9.22 8.093-23.082 4.71-40.26-5.44-26.333-24.012-41.39-32.7-48.487-24.475-20.164-53.128-26.2-72.496-28.985-24.54-4.046-47.822 5.372-62.945 24.806-5.77 7.363-10.927 14.911-14.327 22.684-.949 2.164-6.574 9.062-14.128 4.576-3.026-1.795-4.841-6.101-7.826-12.47-13.863-28.918-39.333-43.378-70.241-39.863-33.96 3.98-60.955 14.327-82.379 31.573-24.011 19.3-33.052 45.438-26.133 73.888.754 3.11 1.298 5.87 2.255 9.161 0 0 1.061 3.926 1.165 6.26.087 1.915.522 3.934-.531 5.944-1.165 2.227-3.478 4.78-8.925 4.569-4.045-.266-9.286-1.393-19.5-4.311-15.256-4.245-44.64-6.965-70.838 22.882-18.306 20.96-25.802 44.904-30.643 65.532-8.49 35.75 5.505 79.859 47.622 94.517.597.33 6.372.328 7.164 6.964.402 3.387-4.51 7.562-13.001 11.143-30.179 12.669-46.097 39.664-43.71 74.021 2.056 29.118 12.204 55.782 30.113 79.328 18.373 24.144 46.031 34.358 76.077 27.46 8.954-2.056 16.848-3.648 21.69-4.045.132 2.785-1.593 7.428-3.384 12.137-3.449 8.756-7.694 22.286-5.041 38.603 2.918 18.108 12.072 33.296 28.19 46.496 20.494 16.78 45.831 27.79 77.47 33.694 37.275 6.965 71.831-11.143 85.23-45.301.664-1.791 3.429-12.657 10.712-12.142 5.874.418 6.454 5.115 10.181 13.402 12.955 28.807 37.675 45.566 65.731 45.566 3.118 0 6.301-.198 9.55-.596 26.598-3.516 51.205-12.868 73.227-27.791 30.974-21.092 42.25-59.098 27.327-92.395-.664-1.46-2.45-8.054-.929-10.679 2.832-4.887 13.021-.112 24.41 2.72 29.237 7.271 57.44-1.592 78.929-25.735 20.76-23.546 27.526-51.072 30.842-69.777 4.974-28.255-4.444-48.22-13.134-59.96-10.741-14.525-24.935-22.352-36.078-27.592zm-17.643 75.812c-3.05 17.047-7.627 28.322-14.857 36.48-5.638 6.434-8.158 5.837-11.342 4.975-15.984-4.046-33.561-7.23-53.128-3.78-29.383 5.24-53.924 32.632-55.847 62.083-1.127 16.382 1.061 30.51 6.832 43.246 1.923 4.31-2.255 7.56-3.516 8.423-13.332 9.02-27.725 14.46-44.639 16.78-.464-.265-2.122-1.923-3.78-5.57-9.419-21.092-23.68-36.082-42.65-44.64-25.27-11.275-51.669-8.024-74.485 9.022-13.398 10.081-23.148 22.618-28.986 37.343-.596 1.592-1.46 4.576-9.551 3.383-20.363-3.847-35.287-10.016-46.894-19.5l-4.837-4.324 2.052-3.769c4.245-11.01 8.622-24.01 7.826-39.863-1.46-32.169-25.602-58.633-57.307-62.878-4.378-.53-8.556-.796-12.668-.796-12.47 0-23.812 2.322-34.49 4.709-4.18 1.062-4.777.597-7.031-2.322-9.75-12.868-15.322-27.327-16.383-42.98 0 0-.203-3.416.227-4.44.29-.688 1.393-1.799 2.028-2.193 19.802-12.337 37.939-24.21 47.557-43.776 12.27-24.938 9.286-52.133-8.158-72.828-8.49-9.948-20.297-22.153-36.48-27.79-7.562-2.653-4.975-15.057-4.975-15.256 4.246-17.975 8.822-28.52 20.894-37.476 10.413 2.919 23.214 6.7 38.403 5.571 39.399-2.454 67.588-29.516 70.108-66.26l1.128-11.21-.73-13.465c-.663-6.567-1.46-13.067-.132-23.746 11.341-9.154 26.464-14.592 48.618-15.586 4.378 9.352 10.878 21.556 22.22 32.434 17.112 16.383 40.725 23.148 64.67 19.035 25.07-4.443 46.562-20.495 57.572-42.913 1.658-3.45 3.914-7.031 6.367-10.016 18.572 2.653 30.245 6.898 39.266 14.326 2.122 1.791 8.69 7.031 9.021 7.23l-2.056 6.567c-4.643 13.001-6.367 25.67-5.24 38.934 3.317 36.016 34.159 65.267 70.175 66.527 14.857-.133 29.449-2.122 43.577-7.96l3.332-1.666 3.168 4.054c9.02 12.403 14.326 27.858 12.8 48.884-12.337 5.372-23.081 12.868-31.77 22.153-16.715 17.643-23.944 42.383-19.434 66.129 4.51 23.811 20.363 44.108 42.45 54.455 3.582 1.658 8.49 4.178 10.214 6.434.728.995 1.79 2.454.861 7.826z"/><path fill="#fff" d="M693.425 510.533c-89.609 1.194-159.584 71.235-159.319 159.385.133 42.98 17.046 83.307 47.756 113.553 30.047 29.714 69.644 45.964 111.496 45.964h1.725c89.012-.862 160.845-72.695 160.116-160.18-.332-42.849-17.378-83.043-48.021-113.023-30.578-29.98-71.17-46.164-113.753-45.7zm.995 250.983c-25.337 2.189-47.424-9.087-64.869-26.399-17.71-17.444-27.46-40.659-27.525-65.332-.133-50.542 40.393-90.67 92.261-91.333h1.194c24.077 0 46.828 9.287 64.139 26.266 17.642 17.312 27.46 40.394 27.658 65.067.465 50.077-41.189 91.267-92.858 91.73z"/></svg>