<svg class="icon" width="200" height="200" viewBox="0 0 1024 1024" xmlns="http://www.w3.org/2000/svg"><path d="M662.4 184V91.456c0-18.304 14.784-33.088 33.152-33.088s33.152 14.784 33.152 33.088v92.48c0 18.432-14.848 33.216-33.152 33.216S662.336 202.304 662.4 184zm-23.936-92.224h-66.24v76.16h66.24v-76.16zM515.136 217.152c18.304 0 33.152-14.784 33.152-33.216v-92.48c0-18.304-14.784-33.088-33.152-33.088s-33.088 14.784-33.088 33.088v92.48c-.064 18.368 14.848 33.216 33.088 33.216zm-180.352 0c18.304 0 33.152-14.784 33.152-33.216v-92.48c0-18.304-14.784-33.088-33.152-33.088s-33.152 14.784-33.152 33.088v92.48c-.064 18.368 14.784 33.216 33.152 33.216zM891.52 91.776H752.64v76.16h136.832v721.28h-565.76V744.448h-189.12V168H277.76V91.84H132.544c-40.96 0-74.176 33.216-74.176 74.176V755.84c0 16.768 7.744 31.808 19.84 41.6L272 954.24c10.304 8.064 22.912 11.84 35.328 11.328h584.064c40.96 0 74.176-33.216 74.176-74.176v-725.44c0-40.96-33.216-74.176-74.048-74.176zm-433.408 0h-66.24v76.16h66.24v-76.16zm83.072 532.8l-15.36 15.36 161.28 161.28c.64.64 1.408 1.088 2.24 1.28l124.032 33.216c1.728.448 3.584 0 4.864-1.28s1.792-3.136 1.28-4.864l-33.216-124.032c-.256-.832-.704-1.664-1.28-2.24l-161.28-161.28-44.672 44.672 161.28 161.28-37.888 37.888-161.28-161.28zm-29.632-325.568c-31.04-31.04-72.256-47.488-114.304-47.488-20.864 0-41.92 4.032-62.016 12.352-2.176.896-3.712 2.752-4.16 5.056-.448 2.176.32 4.608 1.92 6.208l100.096 100.096-15.744 58.368-58.432 15.616-99.968-99.968a7.02 7.02 0 00-4.992-2.048c-.384 0-.832.064-1.28.128-2.24.448-4.16 1.984-4.992 4.096-25.152 60.736-11.328 129.92 35.072 176.32 31.552 31.552 72.96 47.296 114.368 47.296 18.432 0 36.864-3.136 54.464-9.344l62.144 62.144 97.92-97.92-62.08-62.144c20.224-56.96 7.68-123.2-38.016-168.768z"/></svg>