<svg class="icon" width="200" height="200" viewBox="0 0 1024 1024" xmlns="http://www.w3.org/2000/svg"><path d="M72.4 401.821V244.704c0-74.81 60.639-135.45 135.45-135.45 9.675 0 17.578-7.904 17.578-17.579V79.547c0-42.651 33.659-77.263 75.084-77.263 41.426 0 75.084 34.612 75.084 77.263v12.128c0 9.675 7.903 17.579 17.578 17.579h33.522c9.675 0 17.579-7.904 17.579-17.579V79.547c0-42.651 33.658-77.263 75.083-77.263 41.426 0 75.084 34.612 75.084 77.263v12.128c0 9.675 7.904 17.579 17.579 17.579h33.522c9.675 0 17.578-7.904 17.578-17.579V79.547c0-42.651 33.658-77.263 75.084-77.263 41.425 0 75.083 34.612 75.083 77.263v12.128c0 9.675 7.904 17.579 17.579 17.579h9.402c65 0 117.872 52.872 117.872 117.872v174.831c0 9.675-7.903 17.579-17.578 17.579H90.114c-9.81-.136-17.714-8.04-17.714-17.715zM738.477 48.342c-15.943 0-29.025 14.036-29.025 31.205v132.725c0 17.17 12.946 31.206 29.025 31.206 15.944 0 29.025-14.036 29.025-31.206V79.547c0-17.306-13.081-31.205-29.025-31.205zm-218.846 0c-15.943 0-29.025 14.036-29.025 31.205v132.725c0 17.17 12.945 31.206 29.025 31.206 15.943 0 29.025-14.036 29.025-31.206V79.547c-.136-17.306-13.082-31.205-29.025-31.205zm-218.983 0c-15.943 0-29.025 14.036-29.025 31.205v132.725c0 17.17 12.946 31.206 29.025 31.206 15.944 0 29.025-14.036 29.025-31.206V79.547c0-17.306-13.081-31.205-29.025-31.205zm-88.71 946.926c-76.991 0-139.402-62.41-139.402-139.402V487.125c0-11.855 9.675-21.53 21.53-21.53H937.02c11.855 0 21.53 9.675 21.53 21.53v368.741c0 76.991-62.41 139.402-139.402 139.402h-607.21zM132.085 855.73c0 44.15 35.702 79.853 79.853 79.853h607.074c44.014 0 79.853-35.702 79.853-79.853V546.674c0-11.855-9.675-21.53-21.53-21.53h-723.72c-11.855 0-21.53 9.675-21.53 21.53V855.73z"/><path d="M699.777 651.328v-36.929c0-11.719 9.539-21.258 21.258-21.258h87.484c11.72 0 21.258 9.54 21.258 21.258v36.929c0 11.719-9.539 21.258-21.258 21.258h-87.484c-11.719 0-21.258-9.54-21.258-21.258zm0 98.658v-36.793c0-11.719 9.539-21.257 21.258-21.257h87.484c11.72 0 21.258 9.538 21.258 21.257v36.793c0 11.719-9.539 21.258-21.258 21.258h-87.484c-11.719-.137-21.258-9.54-21.258-21.258zm0 98.522v-36.793c0-11.719 9.539-21.258 21.258-21.258h87.484c11.72 0 21.258 9.54 21.258 21.258v36.793c0 11.719-9.539 21.257-21.258 21.257h-87.484c-11.719-.136-21.258-9.538-21.258-21.257zm-166.11-197.18v-36.929c0-11.719 9.538-21.258 21.257-21.258h87.484c11.72 0 21.258 9.54 21.258 21.258v36.929c0 11.719-9.539 21.258-21.258 21.258h-87.484c-11.855 0-21.257-9.54-21.257-21.258zm0 98.658v-36.793c0-11.719 9.538-21.257 21.257-21.257h87.484c11.72 0 21.258 9.538 21.258 21.257v36.793c0 11.719-9.539 21.258-21.258 21.258h-87.484c-11.855-.137-21.257-9.54-21.257-21.258zm0 98.522v-36.793c0-11.719 9.538-21.258 21.257-21.258h87.484c11.72 0 21.258 9.54 21.258 21.258v36.793c0 11.719-9.539 21.257-21.258 21.257h-87.484c-11.855-.136-21.257-9.538-21.257-21.257zM367.42 651.328v-36.929c0-11.719 9.538-21.258 21.258-21.258h87.484c11.719 0 21.257 9.54 21.257 21.258v36.929c0 11.719-9.538 21.258-21.257 21.258h-87.484c-11.856 0-21.258-9.54-21.258-21.258zm0 98.658v-36.793c0-11.719 9.538-21.257 21.258-21.257h87.484c11.719 0 21.257 9.538 21.257 21.257v36.793c0 11.719-9.538 21.258-21.257 21.258h-87.484c-11.856-.137-21.258-9.54-21.258-21.258zm0 98.522v-36.793c0-11.719 9.538-21.258 21.258-21.258h87.484c11.719 0 21.257 9.54 21.257 21.258v36.793c0 11.719-9.538 21.257-21.257 21.257h-87.484c-11.856-.136-21.258-9.538-21.258-21.257zm-166.247-98.522v-36.793c0-11.719 9.539-21.257 21.258-21.257h87.484c11.719 0 21.257 9.538 21.257 21.257v36.793c0 11.719-9.538 21.258-21.257 21.258H222.43c-11.856-.137-21.258-9.54-21.258-21.258zm0 98.522v-36.793c0-11.719 9.539-21.258 21.258-21.258h87.484c11.719 0 21.257 9.54 21.257 21.258v36.793c0 11.719-9.538 21.257-21.257 21.257H222.43c-11.856-.136-21.258-9.538-21.258-21.257z"/></svg>