<svg class="icon" width="200" height="200" viewBox="0 0 1024 1024" xmlns="http://www.w3.org/2000/svg"><path d="M534.347 523.925H858.89v399.147H165.109V523.925h515.947l-96.17-99.946h-432c-48.427 0-87.723 39.274-87.723 87.744v423.552c0 48.448 39.296 87.722 87.722 87.722h718.208c48.448 0 87.723-39.274 87.723-87.722V511.723c0-48.47-39.275-87.744-87.723-87.744H434.016l100.33 99.946zm252.181-24.853h-99.99V274.539c0-96.278-78.293-174.571-174.57-174.571-96.256 0-174.55 78.293-174.55 174.57v49.857h-99.946v-49.856C237.472 123.157 360.629 0 511.989 0c151.382 0 274.539 123.157 274.539 274.539v224.533z"/></svg>