<?xml version="1.0" standalone="no"?><!DOCTYPE svg PUBLIC "-//W3C//DTD SVG 1.1//EN" "http://www.w3.org/Graphics/SVG/1.1/DTD/svg11.dtd"><svg t="1615449781976" class="icon" viewBox="0 0 1024 1024" version="1.1" xmlns="http://www.w3.org/2000/svg" p-id="2047" xmlns:xlink="http://www.w3.org/1999/xlink" width="200" height="200"><defs><style type="text/css"></style></defs><path d="M84 786.2c-38 0-72 32-72 70.1 0 38 34 72.1 72 72.1s70-34 70-72.1c0-38-32-70.1-70-70.1z m0-344.3c-38 0-72 32-72 70.1 0 38 34 70.1 72 70.1s70-32 70-70.1c0-38-32-70.1-70-70.1z m256-210.1h606c36 0 66-28 66-64.1s-30-66.1-66-66.1H340c-36 0-66 30-66 66.1s30 64.1 66 64.1zM84 95.6c-38 0-72 34-72 72.1 0 38 34 70.1 72 70.1s70-32 70-70.1c0-38-32-72.1-70-72.1zM946 446H340c-36 0-66 30-66 66s30 66.1 66 66.1h606c36 0 66-30 66-66.1 0-36-30-66-66-66z m0 344.3H340c-36 0-66 30-66 66s30 66.1 66 66.1h606c36 0 66-30 66-66.1 0-36-30-66-66-66z" p-id="2048"></path></svg>