<svg class="icon" width="200" height="200" viewBox="0 0 1024 1024" xmlns="http://www.w3.org/2000/svg"><path d="M736.256 312.627a299.52 299.52 0 10-448.205 259.789A434.995 434.995 0 002.56 980.685a32.973 32.973 0 1065.946 0 368.64 368.64 0 01368.64-368.64h3.993a299.827 299.827 0 00295.117-299.418zm-532.992 0a233.574 233.574 0 11233.574 233.575 233.882 233.882 0 01-233.574-233.575zm572.109 364.34a102.4 102.4 0 10102.4 102.4 102.4 102.4 0 00-102.4-102.4zm0 138.035a36.045 36.045 0 1136.045-36.045 36.147 36.147 0 01-36.045 36.045zm242.278-84.788a53.35 53.35 0 00-51.2-46.796h-1.638a22.835 22.835 0 01-22.733-22.733 31.949 31.949 0 012.15-8.295 57.856 57.856 0 00-19.763-70.45l-1.945-1.332-56.525-31.437-2.048-.921a58.573 58.573 0 00-23.45-4.813 60.826 60.826 0 00-43.725 18.125 67.277 67.277 0 01-20.48 14.13 67.584 67.584 0 01-20.48-14.335 60.826 60.826 0 00-43.724-18.637 58.675 58.675 0 00-23.143 4.608l-2.048.922-58.47 32.153-1.946 1.331a57.856 57.856 0 00-20.48 70.554 31.846 31.846 0 012.15 8.294 22.835 22.835 0 01-22.835 22.836h-1.638a53.35 53.35 0 00-51.2 46.796 296.96 296.96 0 00-5.018 48.128 297.574 297.574 0 005.018 48.128c5.325 27.956 25.6 46.797 50.688 46.797h2.15a22.835 22.835 0 0122.836 22.835 31.846 31.846 0 01-2.15 8.295 57.958 57.958 0 0019.865 70.553l1.843 1.332 55.5 30.72 2.049.921a58.266 58.266 0 0023.552 4.813 60.314 60.314 0 0044.441-19.149 71.68 71.68 0 0120.48-14.95 69.325 69.325 0 0120.48 15.257 60.314 60.314 0 0045.466 19.866 58.266 58.266 0 0023.142-4.71l2.15-.922 57.447-31.744 1.843-1.331a57.856 57.856 0 0019.968-70.554 31.846 31.846 0 01-2.15-8.294 22.835 22.835 0 0122.835-22.835h1.639c25.292 0 45.875-18.432 51.2-46.695a300.442 300.442 0 005.12-48.23 301.67 301.67 0 00-5.223-48.23zM606.515 652.39zm337.92 251.904zM666.83 625.87zm216.985 304.947zm70.144-122.88A87.142 87.142 0 00880.64 923.75l-40.96 22.528c-10.24-10.24-36.557-33.587-66.048-33.587s-55.91 23.45-65.638 32.87l-39.015-21.81a87.142 87.142 0 00-72.909-115.815 212.992 212.992 0 01-2.15-29.696 212.992 212.992 0 012.867-29.696 87.04 87.04 0 0072.909-115.712l42.086-23.142c10.24 9.42 36.045 31.846 64.82 31.846s54.476-21.811 64.307-30.72l39.731 22.118a87.142 87.142 0 0072.909 115.712 210.637 210.637 0 012.867 29.696 212.582 212.582 0 01-2.458 29.696z"/></svg>