<svg class="icon" width="200" height="199.42" viewBox="0 0 1027 1024" xmlns="http://www.w3.org/2000/svg"><path d="M195.67 895.872a20.075 20.075 0 01-20-20.01v-74.017c0-145.034 87.018-273.066 222.058-327.072l26.997-10.997-23.008-18.016c-50.005-39.008-79.018-98.027-79.018-161.045 0-113.035 92.021-205.056 205.045-205.056 113.035 0 205.056 92.021 205.056 205.056 0 63.008-29.003 122.026-79.03 161.045l-23.007 18.016 27.008 10.997c135.04 54.006 222.058 182.038 222.058 327.072v74.016a20.075 20.075 0 01-20 20.011H195.67zm332.085-406.101c-172.043 0-312.075 140.042-312.075 312.074v54.016h624.16v-54.016c-.01-172.032-140.043-312.074-312.085-312.074zm0-369.099c-91.019 0-164.043 74.016-164.043 164.043s73.024 164.042 164.043 164.042 164.042-74.016 164.042-164.042-73.024-164.043-164.042-164.043zm480.128 664.17a20.064 20.064 0 01-20.011-20V707.82c0-109.024-74.016-204.043-180.043-231.051-9.002-1.003-15.008-6.005-18.005-12v-3.008l-1.003-2.997v-6.006l1.003-2.005c2.005-4.01 2.997-6.005 4-7.008 1.995-2.005 4-3.99 6.997-5.003 46.016-21.002 76.022-66.005 76.022-116.021 0-58.016-39.008-108.021-94.016-123.04-10.998-2.997-17.003-14.005-14.006-25.003 2.006-9.002 10.006-14.997 20-14.997 2.006 0 4 0 5.003 1.003 73.013 20 124.021 86.016 124.021 162.037 0 42.005-16 82.027-44.01 113.024l-14.998 14.005 18.998 10.006c92.032 48.01 150.037 143.04 150.037 247.061v57.024c.01 12-8.981 21.003-19.99 21.003zm-960.246 0a20.053 20.053 0 01-20-20V707.82c0-105.024 57.014-200.054 150.038-248.064l19.008-10.006-14.006-16.01c-28.01-30.998-44.01-71.008-44.01-113.024 0-78.016 53.013-145.046 128.032-163.04.992 0 2.997-1.003 5.002-1.003 9.003 0 18.006 6.005 20 16a19.157 19.157 0 01-14.997 24 127.435 127.435 0 00-97.035 124.043c0 50.005 30.006 96.021 76.022 116.032 2.997 1.002 5.002 1.994 5.994 4 2.006 2.005 2.006 2.986 4 5.002 1.003 2.006 1.003 2.006 1.003 2.998v8l-1.003 5.002c-2.997 6.998-9.002 11.008-16 12.011C142.656 503.776 67.637 597.792 67.637 707.819v57.024a20.053 20.053 0 01-20 20zm0 0"/></svg>